<?xml version="1.0" encoding="UTF-8" standalone="no"?>
<!DOCTYPE svg PUBLIC "-//W3C//DTD SVG 1.1//EN" "http://www.w3.org/Graphics/SVG/1.1/DTD/svg11.dtd">
<svg width="100%" height="100%" viewBox="0 0 1301 867" version="1.1" xmlns="http://www.w3.org/2000/svg" xmlns:xlink="http://www.w3.org/1999/xlink" xml:space="preserve" xmlns:serif="http://www.serif.com/" style="fill-rule:evenodd;clip-rule:evenodd;stroke-linecap:round;stroke-linejoin:round;">
    <g transform="matrix(1,0,0,1,-1329,0)">
        <g id="Artboard2" transform="matrix(1,0,0,1,1329.55,0)">
            <rect x="0" y="0" width="1300" height="866.667" style="fill:none;"/>
            <g transform="matrix(1.63481,0,0,1.63481,-72.2924,-66.0118)">
                <path d="M354.387,452.58C368.416,446.204 386.27,446.204 400.298,452.58C414.327,458.957 432.181,458.957 446.209,452.58C460.238,446.204 478.092,446.204 492.121,452.58C506.149,458.957 524.003,458.957 538.032,452.58C552.06,446.204 569.914,446.204 583.943,452.58M173.359,452.606C181.52,448.098 191.906,448.098 200.066,452.606C208.227,457.113 218.613,457.113 226.773,452.606C234.933,448.098 245.32,448.098 253.48,452.606C261.64,457.113 272.026,457.113 280.187,452.606C288.347,448.098 298.733,448.098 306.894,452.606M631.434,452.606C639.594,448.098 649.98,448.098 658.141,452.606C666.301,457.113 676.687,457.113 684.848,452.606C693.008,448.098 703.394,448.098 711.555,452.606C719.715,457.113 730.101,457.113 738.262,452.606C746.422,448.098 756.808,448.098 764.969,452.606M579.034,494.018C587.195,489.511 597.581,489.511 605.741,494.018C613.902,498.526 624.288,498.526 632.448,494.018C640.609,489.511 650.995,489.511 659.155,494.018C667.315,498.526 677.702,498.526 685.862,494.018C694.022,489.511 704.408,489.511 712.569,494.018M225.759,494.018C233.919,489.511 244.305,489.511 252.466,494.018C260.626,498.526 271.012,498.526 279.173,494.018C287.333,489.511 297.719,489.511 305.88,494.018C314.04,498.526 324.426,498.526 332.587,494.018C340.747,489.511 351.133,489.511 359.294,494.018M400.299,490.839C414.327,497.216 432.182,497.216 446.21,490.839C460.239,484.463 478.093,484.463 492.121,490.839C506.15,497.216 524.004,497.216 538.032,490.839" style="fill:none;fill-rule:nonzero;stroke:white;stroke-width:6px;"/>
                <path d="M456.411,406.351L456.411,252.727C456.411,240.714 440.826,235.995 434.156,245.993L365.353,349.204C359.972,357.277 365.749,368.091 375.454,368.091L456.411,368.091" style="fill:rgb(246,231,254);"/>
                <path d="M456.411,406.351L456.411,252.727C456.411,240.714 440.826,235.995 434.156,245.993L365.353,349.204C359.972,357.277 365.749,368.091 375.454,368.091L456.411,368.091" style="fill:none;fill-rule:nonzero;stroke:rgb(246,231,254);stroke-width:6px;"/>
                <path d="M433.064,368.091L433.064,252.727C433.064,240.714 448.648,235.995 455.318,245.993L524.121,349.204C529.502,357.277 523.725,368.091 514.02,368.091L433.064,368.091Z" style="fill:rgb(246,231,254);stroke:rgb(246,231,254);stroke-width:6px;"/>
                <path d="M569.914,448.437L583.942,406.352L363.951,406.352L384.917,448.297" style="fill:none;fill-rule:nonzero;stroke:white;stroke-width:6px;"/>
                <path d="M407.581,131.199C407.581,154.068 426.12,172.609 448.99,172.609C471.86,172.609 490.4,154.068 490.4,131.199C490.4,108.329 471.86,89.789 448.99,89.789C426.12,89.789 407.581,108.329 407.581,131.199Z" style="fill:rgb(92,102,106);"/>
                <path d="M145.681,215.806C131.278,215.806 138.017,192.967 156.264,198.422C157.275,166.71 208.965,143.506 230.339,186.279C236.382,181.497 249.952,190.529 246.947,198.422C253.66,198.994 258.941,199.771 263.05,200.799C272.537,203.174 270.659,215.699 260.88,215.611L145.681,215.806ZM417.043,215.807C430.663,215.807 424.29,194.21 407.035,199.368C406.08,169.38 357.201,147.439 336.989,187.886C331.274,183.364 318.442,191.905 321.284,199.368C314.936,199.909 309.942,200.643 306.057,201.616C297.086,203.861 298.862,215.705 308.109,215.623L417.043,215.807ZM530.68,124.253C520.496,124.253 525.261,108.104 538.163,111.962C538.877,89.538 575.426,73.132 590.539,103.376C594.812,99.994 604.407,106.381 602.283,111.962C607.029,112.366 610.763,112.915 613.668,113.642C620.376,115.321 619.048,124.178 612.134,124.116L530.68,124.253ZM311.287,178.311L250.272,178.311C244.816,178.311 242.466,171.232 246.93,168.093L247.119,167.959C253.475,163.582 261.817,163.979 261.817,163.979C261.817,163.979 263.007,140.292 285.451,140.292C305.742,140.292 313.834,160.25 316.753,171.246C317.701,174.818 314.976,178.311 311.287,178.311ZM707.988,165.541L653.178,165.541C648.277,165.541 646.166,159.147 650.176,156.312C650.232,156.271 650.289,156.23 650.346,156.191C656.055,152.237 663.549,152.596 663.549,152.596C663.549,152.596 664.618,131.201 684.779,131.201C703.007,131.201 710.276,149.228 712.898,159.16C713.749,162.386 711.302,165.541 707.988,165.541ZM694.652,215.587L768.181,215.587C774.134,215.587 776.702,208.052 771.828,204.709L771.622,204.568C764.685,199.907 755.581,200.33 755.581,200.33C755.581,200.33 754.28,175.116 729.785,175.116C717.674,175.116 707.887,195.352 707.887,195.352C707.887,195.352 691.412,195.352 688.686,208.065C687.862,211.917 690.625,215.587 694.652,215.587ZM653.296,218.048L490.283,218.048C474.981,218.048 475.683,205.383 480.681,200.97C485.804,196.447 495.926,198.281 495.926,198.281C495.926,198.281 498.94,189.762 508.859,185.615C517.633,181.947 526.825,183.692 526.825,183.692C526.825,183.692 526.825,177.846 532.443,173.004C538.062,168.161 545.552,168.632 545.552,168.632C545.552,168.632 550.702,136.394 585.112,136.394C619.523,136.394 623.502,166.749 623.502,166.749C623.502,166.749 631.227,166.749 636.845,171.927C642.463,177.103 643.165,182.986 643.165,182.986C643.165,182.986 661.954,180.441 667.511,196.734C670.822,206.444 664.018,218.048 653.296,218.048ZM246.704,126.495L366.615,126.495C377.871,126.495 377.354,117.178 373.677,113.932C369.909,110.605 362.463,111.955 362.463,111.955C362.463,111.955 360.246,105.688 352.95,102.638C346.496,99.939 339.734,101.223 339.734,101.223C339.734,101.223 339.734,96.923 335.602,93.361C331.469,89.799 325.959,90.145 325.959,90.145C325.959,90.145 322.171,66.431 296.859,66.431C271.547,66.431 268.62,88.76 268.62,88.76C268.62,88.76 262.938,88.76 258.805,92.568C254.672,96.376 254.156,100.703 254.156,100.703C254.156,100.703 240.335,98.831 236.248,110.816C233.812,117.959 238.816,126.495 246.704,126.495Z" style="fill:none;stroke:white;stroke-width:4px;stroke-linecap:butt;stroke-linejoin:miter;"/>
                <path d="M699.345,333.17C683.767,336.86 667.29,323.649 667.29,323.649C667.29,323.649 676.083,304.461 691.666,300.782C707.245,297.091 723.716,310.291 723.716,310.291C723.716,310.291 714.924,329.479 699.345,333.17Z" style="fill:url(#_Linear1);fill-rule:nonzero;"/>
                <path d="M537.506,285.499C548.312,292.942 564.821,287.739 564.821,287.739C564.821,287.739 563.799,270.47 552.985,263.034C542.179,255.591 525.677,260.786 525.677,260.786C525.677,260.786 526.699,278.056 537.506,285.499Z" style="fill:url(#_Linear2);fill-rule:nonzero;"/>
                <path d="M137.46,292.335C150.548,305.656 175.023,302.847 175.023,302.847C175.023,302.847 178.261,278.44 165.161,265.128C152.073,251.807 127.61,254.607 127.61,254.607C127.61,254.607 124.372,279.014 137.46,292.335Z" style="fill:url(#_Linear3);fill-rule:nonzero;"/>
                <g transform="matrix(-1,-7.65714e-16,7.65714e-16,-1,1167.67,677.554)">
                    <ellipse cx="583.836" cy="338.777" rx="6.371" ry="5.84" style="fill:rgb(230,189,253);"/>
                </g>
                <g transform="matrix(-1,-7.65714e-16,7.65714e-16,-1,622.98,808.154)">
                    <ellipse cx="311.49" cy="404.077" rx="7.963" ry="7.432" style="fill:rgb(230,189,253);"/>
                </g>
                <g transform="matrix(-1,0,0,1,706.837,393.293)">
                    <circle cx="0" cy="0" r="12.575" style="fill:rgb(225,228,229);"/>
                </g>
                <g transform="matrix(-1,0,0,1,249.375,350.457)">
                    <ellipse cx="0" cy="0" rx="7.432" ry="7.963" style="fill:rgb(225,228,229);"/>
                </g>
                <g transform="matrix(-1,0,0,1,400.295,526.328)">
                    <circle cx="0" cy="0" r="6.517" style="fill:rgb(225,228,229);"/>
                </g>
                <g transform="matrix(-1,0,0,1,704.209,242.016)">
                    <circle cx="0" cy="0" r="9.947" style="fill:rgb(225,228,229);"/>
                </g>
                <g transform="matrix(0.258819,0.965926,0.965926,-0.258819,293.444,240.037)">
                    <circle cx="0" cy="0" r="6.506" style="fill:rgb(225,228,229);"/>
                </g>
                <g transform="matrix(-1,0,0,1,631.904,382.859)">
                    <ellipse cx="0" cy="0" rx="6.658" ry="5.327" style="fill:rgb(225,228,229);"/>
                </g>
                <path d="M770.926,291.528L771.1,291.528C772.131,306.142 783,306.367 783,306.367C783,306.367 771.015,306.601 771.015,323.488C771.015,306.601 759.03,306.367 759.03,306.367C759.03,306.367 769.894,306.142 770.926,291.528ZM359.73,272.416L359.869,272.416C360.691,284.554 369.357,284.741 369.357,284.741C369.357,284.741 359.801,284.935 359.801,298.961C359.801,284.935 350.245,284.741 350.245,284.741C350.245,284.741 358.907,284.554 359.73,272.416Z" style="fill:rgb(225,228,229);fill-rule:nonzero;"/>
            </g>
        </g>
    </g>
    <defs>
        <linearGradient id="_Linear1" x1="0" y1="0" x2="1" y2="0" gradientUnits="userSpaceOnUse" gradientTransform="matrix(136.373,-64.427,64.427,136.373,640.681,342.346)"><stop offset="0" style="stop-color:white;stop-opacity:1"/><stop offset="1" style="stop-color:rgb(238,238,238);stop-opacity:1"/></linearGradient>
        <linearGradient id="_Linear2" x1="0" y1="0" x2="1" y2="0" gradientUnits="userSpaceOnUse" gradientTransform="matrix(-85.065,-89.698,89.698,-85.065,579.601,309.921)"><stop offset="0" style="stop-color:white;stop-opacity:1"/><stop offset="1" style="stop-color:rgb(238,238,238);stop-opacity:1"/></linearGradient>
        <linearGradient id="_Linear3" x1="0" y1="0" x2="1" y2="0" gradientUnits="userSpaceOnUse" gradientTransform="matrix(-94.619,-148.324,148.324,-94.619,189.679,337.836)"><stop offset="0" style="stop-color:white;stop-opacity:1"/><stop offset="1" style="stop-color:rgb(238,238,238);stop-opacity:1"/></linearGradient>
    </defs>
</svg>
