<?xml version="1.0" encoding="UTF-8" standalone="no"?><!DOCTYPE svg PUBLIC "-//W3C//DTD SVG 1.1//EN" "http://www.w3.org/Graphics/SVG/1.1/DTD/svg11.dtd"><svg width="100%" height="100%" viewBox="0 0 1300 866" version="1.1" xmlns="http://www.w3.org/2000/svg" xmlns:xlink="http://www.w3.org/1999/xlink" xml:space="preserve" xmlns:serif="http://www.serif.com/" style="fill-rule:evenodd;clip-rule:evenodd;stroke-linecap:round;stroke-linejoin:round;"><g><path d="M1300,86.667l0,693.333c0,47.833 -38.834,86.667 -86.667,86.667l-1126.67,-0c-47.833,-0 -86.667,-38.834 -86.667,-86.667l-0,-693.333c-0,-47.833 38.834,-86.667 86.667,-86.667l1126.67,-0c47.833,-0 86.667,38.834 86.667,86.667Z" style="fill:#fff;"/><path d="M507.065,673.873c22.934,-10.424 52.122,-10.424 75.056,-0c22.934,10.425 52.122,10.425 75.056,-0c22.934,-10.424 52.122,-10.424 75.057,-0c22.933,10.425 52.121,10.425 75.056,-0c22.933,-10.424 52.121,-10.424 75.056,-0m-671.229,0.042c13.342,-7.37 30.321,-7.37 43.661,0c13.342,7.368 30.321,7.368 43.661,0c13.341,-7.37 30.321,-7.37 43.661,0c13.341,7.368 30.32,7.368 43.661,0c13.341,-7.37 30.32,-7.37 43.661,0m530.563,0c13.34,-7.37 30.319,-7.37 43.661,0c13.34,7.368 30.319,7.368 43.661,0c13.34,-7.37 30.319,-7.37 43.661,0c13.34,7.368 30.319,7.368 43.661,0c13.34,-7.37 30.319,-7.37 43.661,0m-303.969,67.701c13.342,-7.368 30.321,-7.368 43.661,0c13.342,7.37 30.321,7.37 43.661,0c13.342,-7.368 30.321,-7.368 43.661,0c13.34,7.37 30.321,7.37 43.661,0c13.34,-7.368 30.319,-7.368 43.661,0m-795.844,0c13.34,-7.368 30.319,-7.368 43.661,0c13.34,7.37 30.319,7.37 43.661,0c13.34,-7.368 30.319,-7.368 43.661,0c13.34,7.37 30.319,7.37 43.661,0c13.34,-7.368 30.319,-7.368 43.661,0m67.035,-5.197c22.933,10.425 52.123,10.425 75.056,-0c22.935,-10.424 52.123,-10.424 75.056,-0c22.935,10.425 52.123,10.425 75.056,-0" style="fill:none;fill-rule:nonzero;stroke:#e1e4e5;stroke-width:9.81px;"/><path d="M673.855,598.297l-0,-251.147c-0,-19.639 -25.479,-27.354 -36.383,-11.009l-112.48,168.731c-8.797,13.198 0.647,30.877 16.513,30.877l132.35,-0" style="fill:#4f0479;"/><path d="M673.855,598.297l-0,-251.147c-0,-19.639 -25.479,-27.354 -36.383,-11.009l-112.48,168.731c-8.797,13.198 0.647,30.877 16.513,30.877l132.35,-0" style="fill:none;fill-rule:nonzero;stroke:#4f0479;stroke-width:9.81px;"/><path d="M635.687,535.749l-0,-188.599c-0,-19.639 25.477,-27.354 36.381,-11.009l112.48,168.731c8.797,13.198 -0.647,30.877 -16.513,30.877l-132.348,-0Z" style="fill:#4f0479;stroke:#4f0479;stroke-width:9.81px;"/><path d="M859.411,667.1l22.934,-68.802l-359.645,0l34.276,68.573" style="fill:none;fill-rule:nonzero;stroke:#e1e4e5;stroke-width:9.81px;"/><path d="M594.027,148.474c-0,37.387 30.308,67.698 67.696,67.698c37.388,-0 67.698,-30.311 67.698,-67.698c-0,-37.388 -30.31,-67.697 -67.698,-67.697c-37.388,-0 -67.696,30.309 -67.696,67.697Z" style="fill:#e1e4e5;"/><path d="M165.869,286.791c-23.546,0 -12.529,-37.337 17.301,-28.42c1.653,-51.843 86.157,-89.777 121.099,-19.851c9.879,-7.818 32.064,6.948 27.151,19.851c10.975,0.936 19.608,2.206 26.326,3.886c15.509,3.883 12.439,24.359 -3.548,24.215l-188.329,0.319Zm443.627,0.002c22.266,-0 11.847,-35.307 -16.362,-26.875c-1.561,-49.025 -81.469,-84.894 -114.512,-18.771c-9.343,-7.393 -30.321,6.57 -25.675,18.771c-10.377,0.884 -18.542,2.084 -24.893,3.675c-14.666,3.67 -11.762,23.033 3.355,22.899l178.087,0.301Zm185.775,-149.674c-16.649,-0 -8.859,-26.401 12.233,-20.094c1.168,-36.659 60.918,-63.479 85.625,-14.036c6.986,-5.529 22.672,4.912 19.2,14.036c7.758,0.661 13.863,1.558 18.612,2.747c10.966,2.745 8.795,17.224 -2.508,17.123l-133.162,0.224Zm-358.667,88.375l-99.748,-0c-8.92,-0 -12.761,-11.573 -5.464,-16.705l0.309,-0.219c10.391,-7.156 24.029,-6.506 24.029,-6.506c-0,-0 1.945,-38.724 38.637,-38.724c33.172,-0 46.401,32.627 51.173,50.604c1.55,5.839 -2.905,11.55 -8.936,11.55Zm648.533,-20.877l-89.604,0c-8.013,0 -11.464,-10.453 -4.908,-15.088c0.091,-0.067 0.184,-0.133 0.278,-0.197c9.333,-6.464 21.584,-5.878 21.584,-5.878c0,0 1.748,-34.976 34.707,-34.976c29.8,-0 41.683,29.47 45.97,45.707c1.391,5.274 -2.609,10.432 -8.027,10.432Zm-21.802,81.816l120.206,0c9.732,0 13.93,-12.318 5.962,-17.784l-0.336,-0.23c-11.341,-7.62 -26.225,-6.928 -26.225,-6.928c0,-0 -2.126,-41.221 -42.171,-41.221c-19.799,0 -35.799,33.083 -35.799,33.083c-0,-0 -26.934,-0 -31.39,20.783c-1.348,6.297 3.169,12.297 9.753,12.297Zm-67.61,4.023l-266.496,0c-25.016,0 -23.868,-20.705 -15.697,-27.919c8.375,-7.394 24.923,-4.396 24.923,-4.396c-0,-0 4.927,-13.927 21.143,-20.707c14.344,-5.996 29.371,-3.143 29.371,-3.143c-0,-0 -0,-9.558 9.184,-17.473c9.186,-7.918 21.431,-7.148 21.431,-7.148c-0,0 8.419,-52.703 64.673,-52.703c56.256,0 62.761,49.625 62.761,49.625c-0,-0 12.629,-0 21.813,8.465c9.185,8.462 10.332,18.079 10.332,18.079c0,0 30.717,-4.16 39.801,22.476c5.413,15.874 -5.71,34.844 -23.239,34.844Zm-664.702,-149.672l196.032,0c18.402,0 17.556,-15.231 11.545,-20.538c-6.16,-5.439 -18.333,-3.232 -18.333,-3.232c0,-0 -3.624,-10.245 -15.552,-15.232c-10.551,-4.412 -21.605,-2.313 -21.605,-2.313c-0,0 -0,-7.03 -6.755,-12.853c-6.757,-5.823 -15.765,-5.257 -15.765,-5.257c0,-0 -6.193,-38.768 -47.573,-38.768c-41.38,-0 -46.165,36.503 -46.165,36.503c-0,0 -9.289,0 -16.046,6.226c-6.757,6.225 -7.6,13.299 -7.6,13.299c-0,-0 -22.595,-3.06 -29.277,16.533c-3.982,11.677 4.199,25.632 17.094,25.632Z" style="fill:#fff;stroke:#e1e4e5;stroke-width:6.54px;stroke-linecap:butt;stroke-linejoin:miter;"/><path d="M1071.01,478.659c-25.467,6.033 -52.404,-15.565 -52.404,-15.565c0,0 14.375,-31.368 39.85,-37.383c25.469,-6.034 52.396,15.545 52.396,15.545c0,0 -14.373,31.369 -39.842,37.403Z" style="fill:url(#_Linear1);fill-rule:nonzero;"/><path d="M806.43,400.726c17.666,12.168 44.655,3.662 44.655,3.662c0,0 -1.671,-28.231 -19.349,-40.388c-17.666,-12.168 -44.644,-3.675 -44.644,-3.675c0,-0 1.671,28.233 19.338,40.401Z" style="fill:url(#_Linear2);fill-rule:nonzero;"/><path d="M152.429,411.902c21.397,21.777 61.409,17.185 61.409,17.185c-0,-0 5.293,-39.901 -16.123,-61.664c-21.396,-21.777 -61.389,-17.2 -61.389,-17.2c0,0 -5.293,39.901 16.103,61.679Z" style="fill:url(#_Linear3);fill-rule:nonzero;"/><ellipse cx="882.171" cy="487.826" rx="10.415" ry="9.547" style="fill:#4f0479;"/><ellipse cx="436.936" cy="594.579" rx="13.018" ry="12.15" style="fill:#4f0479;"/><circle cx="1083.26" cy="576.949" r="20.558" style="fill:#e1e4e5;"/><ellipse cx="335.39" cy="506.92" rx="12.15" ry="13.018" style="fill:#e1e4e5;"/><circle cx="582.116" cy="794.437" r="10.654" style="fill:#e1e4e5;"/><circle cx="1078.96" cy="329.64" r="16.262" style="fill:#e1e4e5;"/><path d="M397.16,329.156c1.519,5.671 7.356,9.041 13.027,7.521c5.67,-1.519 9.04,-7.356 7.521,-13.026c-1.52,-5.67 -7.357,-9.04 -13.027,-7.521c-5.67,1.519 -9.04,7.356 -7.521,13.026Z" style="fill:#e1e4e5;"/><ellipse cx="960.753" cy="559.892" rx="10.885" ry="8.709" style="fill:#e1e4e5;"/><path d="M1188.03,410.582l0.284,0c1.686,23.892 19.454,24.259 19.454,24.259c0,0 -19.593,0.383 -19.593,27.99c0,-27.607 -19.593,-27.99 -19.593,-27.99c-0,0 17.761,-0.367 19.448,-24.259Zm-672.23,-31.244l0.228,-0c1.344,19.843 15.511,20.149 15.511,20.149c-0,-0 -15.622,0.317 -15.622,23.247c-0,-22.93 -15.623,-23.247 -15.623,-23.247c0,-0 14.161,-0.306 15.506,-20.149Z" style="fill:#e1e4e5;fill-rule:nonzero;"/></g><defs><linearGradient id="_Linear1" x1="0" y1="0" x2="1" y2="0" gradientUnits="userSpaceOnUse" gradientTransform="matrix(222.945,-105.326,105.326,222.945,975.102,493.66)"><stop offset="0" style="stop-color:#fff;stop-opacity:1"/><stop offset="1" style="stop-color:#eee;stop-opacity:1"/></linearGradient><linearGradient id="_Linear2" x1="0" y1="0" x2="1" y2="0" gradientUnits="userSpaceOnUse" gradientTransform="matrix(-139.065,-146.64,146.64,-139.065,875.248,440.652)"><stop offset="0" style="stop-color:#fff;stop-opacity:1"/><stop offset="1" style="stop-color:#eee;stop-opacity:1"/></linearGradient><linearGradient id="_Linear3" x1="0" y1="0" x2="1" y2="0" gradientUnits="userSpaceOnUse" gradientTransform="matrix(-154.685,-242.482,242.482,-154.685,237.798,486.287)"><stop offset="0" style="stop-color:#fff;stop-opacity:1"/><stop offset="1" style="stop-color:#eee;stop-opacity:1"/></linearGradient></defs></svg>